<svg xmlns="http://www.w3.org/2000/svg" viewBox="0 0 1200 675" role="img"
     aria-label="Đồ hoạ biên tập DNGWORKS: hành trình tìm kiếm phân nhánh qua nhiều câu hỏi">
  <defs>
    <linearGradient id="as-bg" x1="0" y1="0" x2="1" y2="1">
      <stop offset="0" stop-color="#F4F9FF"/>
      <stop offset="0.55" stop-color="#E4F0FC"/>
      <stop offset="1" stop-color="#DCF0EC"/>
    </linearGradient>
  </defs>
  <rect width="1200" height="675" fill="url(#as-bg)"/>

  <!-- one query branching into the questions that actually get asked -->
  <g fill="none" stroke="#285BE8" stroke-width="2.5">
    <path d="M176 338 H336"/>
    <path d="M336 338 C 430 338, 430 170, 524 170"/>
    <path d="M336 338 C 430 338, 430 338, 524 338"/>
    <path d="M336 338 C 430 338, 430 506, 524 506" stroke="#0E8F7D"/>
    <path d="M700 170 C 790 170, 790 110, 880 110"/>
    <path d="M700 170 C 790 170, 790 230, 880 230"/>
    <path d="M700 338 C 790 338, 790 338, 880 338"/>
    <path d="M700 506 C 790 506, 790 446, 880 446" stroke="#0E8F7D"/>
    <path d="M700 506 C 790 506, 790 566, 880 566" stroke="#0E8F7D"/>
  </g>

  <g>
    <rect x="80" y="306" width="96" height="64" rx="8" fill="#CFE0FA"/>
    <rect x="80" y="306" width="96" height="64" rx="8" fill="none" stroke="#1B46C4" stroke-width="2.5"/>

    <rect x="524" y="140" width="176" height="60" rx="8" fill="#FFFFFF" opacity=".92"/>
    <rect x="524" y="140" width="176" height="60" rx="8" fill="none" stroke="#C2D5EE" stroke-width="2"/>
    <rect x="524" y="308" width="176" height="60" rx="8" fill="#FFFFFF" opacity=".92"/>
    <rect x="524" y="308" width="176" height="60" rx="8" fill="none" stroke="#C2D5EE" stroke-width="2"/>
    <rect x="524" y="476" width="176" height="60" rx="8" fill="#D5EBE4"/>
    <rect x="524" y="476" width="176" height="60" rx="8" fill="none" stroke="#0E8F7D" stroke-width="2"/>
  </g>

  <g fill="#285BE8">
    <rect x="872" y="102" width="16" height="16"/>
    <rect x="872" y="222" width="16" height="16"/>
    <rect x="872" y="330" width="16" height="16"/>
  </g>
  <g fill="#12BCA4">
    <rect x="872" y="438" width="16" height="16"/>
    <rect x="872" y="558" width="16" height="16"/>
  </g>
</svg>
